<?xml version="1.0" standalone="no"?>
<!DOCTYPE svg PUBLIC "-//W3C//DTD SVG 20010904//EN"
 "http://www.w3.org/TR/2001/REC-SVG-20010904/DTD/svg10.dtd">
<svg version="1.0" xmlns="http://www.w3.org/2000/svg"
 width="1024.000000pt" height="1024.000000pt" viewBox="0 0 1024.000000 1024.000000"
 preserveAspectRatio="xMidYMid meet">
<metadata>
Created by potrace 1.14, written by Peter Selinger 2001-2017
</metadata>
<g transform="translate(0.000000,1024.000000) scale(0.100000,-0.100000)"
fill="#000000" stroke="none">
<path d="M0 5120 l0 -5120 5120 0 5120 0 0 5120 0 5120 -5120 0 -5120 0 0
-5120z m5145 4118 c10 -18 55 -96 100 -173 44 -77 87 -150 96 -163 15 -20 33
-24 194 -43 455 -51 835 -164 1250 -369 121 -60 255 -131 297 -159 43 -28 81
-51 85 -51 7 0 223 220 502 512 71 75 94 86 105 50 5 -15 26 -251 56 -612 5
-63 12 -169 15 -235 12 -263 9 -250 85 -335 179 -201 401 -506 520 -718 249
-444 405 -963 434 -1447 4 -55 9 -133 12 -172 l6 -73 -231 0 c-250 0 -275 -4
-320 -53 -13 -15 -29 -48 -36 -74 l-12 -48 -107 -3 c-80 -2 -107 1 -111 10 -2
7 -16 141 -30 298 -28 314 -43 410 -81 527 -33 102 -100 242 -152 318 l-41 60
209 209 c192 191 210 211 210 243 0 25 -8 43 -29 64 -56 55 -63 50 -288 -173
-111 -111 -204 -200 -205 -197 -2 2 -45 47 -96 100 l-92 95 39 89 c73 168 120
274 130 292 53 98 81 177 91 259 13 114 60 696 60 747 0 34 -4 40 -33 52 -19
8 -124 55 -233 105 -109 50 -219 99 -243 108 l-43 17 -101 -105 c-191 -200
-527 -599 -527 -626 0 -8 -20 -62 -44 -121 -134 -329 -161 -392 -182 -435 -23
-44 -27 -48 -62 -48 -20 0 -54 -5 -75 -11 -22 -6 -41 -8 -45 -5 -6 6 7 223 38
651 11 143 23 319 26 391 l7 131 -67 172 c-37 94 -77 195 -89 223 l-22 51
-113 -218 -113 -217 -19 -257 c-28 -372 -48 -700 -56 -909 l-7 -183 -34 -14
c-19 -8 -47 -24 -63 -35 -15 -11 -31 -20 -34 -20 -3 0 -6 289 -6 642 l0 641
-76 146 c-42 80 -106 202 -141 271 -107 205 -325 600 -332 600 -10 0 -58 -82
-149 -255 -43 -82 -131 -247 -194 -365 -64 -118 -136 -257 -162 -307 l-46 -93
0 -641 c0 -375 -4 -639 -9 -637 -5 2 -36 19 -69 38 l-60 35 -6 59 c-3 32 -6
111 -6 175 0 160 -17 532 -40 865 l-19 279 24 46 c33 67 40 128 21 193 -29
102 -135 188 -232 188 -103 0 -189 -50 -239 -141 -40 -73 -41 -159 -3 -239 26
-54 27 -64 53 -545 15 -269 30 -543 33 -609 l5 -119 -34 7 c-335 62 -650 15
-956 -143 -144 -75 -228 -136 -358 -263 -55 -54 -103 -97 -107 -95 -4 1 -91
86 -195 188 -113 111 -199 188 -215 192 -15 4 -38 3 -52 -3 -32 -12 -61 -69
-53 -102 4 -14 94 -109 211 -222 l205 -197 -45 -64 c-127 -182 -204 -424 -225
-710 -5 -77 -15 -210 -22 -295 l-12 -155 -123 -3 c-93 -2 -123 0 -127 10 -2 7
-9 33 -15 58 -17 65 -90 134 -166 156 -83 24 -159 15 -280 -33 l-99 -40 -3 96
c-6 180 45 562 105 791 68 258 127 418 239 641 194 390 410 687 723 999 260
259 523 460 806 618 175 97 428 216 576 271 299 110 717 207 977 227 54 4 99
12 106 20 8 7 35 50 61 96 100 173 170 288 175 288 3 0 14 -15 25 -32z m95
-780 c62 -106 131 -222 152 -257 21 -36 38 -70 38 -75 -1 -6 -19 -23 -41 -39
l-40 -27 -107 80 c-59 44 -112 80 -118 80 -6 0 -62 -36 -124 -80 -63 -44 -116
-79 -119 -78 -20 10 -81 54 -81 59 0 4 31 58 69 120 37 63 101 170 141 239 95
164 99 170 108 170 4 0 59 -87 122 -192z m-1010 -37 c84 -61 33 -201 -73 -201
-49 0 -81 19 -102 60 -20 38 -19 58 3 99 36 67 113 86 172 42z m1905 -321 c19
-21 18 -42 -20 -560 -8 -102 -19 -286 -26 -409 l-13 -224 -53 -23 c-30 -13
-57 -24 -61 -24 -10 0 -5 129 18 515 36 574 49 718 67 733 25 18 68 15 88 -8z
m-1909 -6 c5 -14 23 -346 39 -704 8 -179 16 -371 19 -427 3 -57 2 -103 -2
-103 -10 0 -96 33 -107 41 -6 4 -12 43 -13 86 -4 111 -30 589 -47 848 -8 121
-15 231 -15 245 0 24 2 25 62 24 34 0 63 -5 64 -10z m1021 -121 l62 -44 -5
-774 -4 -775 273 0 c266 0 274 1 293 21 37 41 190 135 273 168 164 64 219 74
401 75 188 0 276 -17 432 -84 237 -102 484 -334 605 -568 83 -159 116 -283
128 -467 4 -55 18 -197 31 -315 14 -118 34 -300 44 -405 11 -104 26 -251 35
-325 9 -74 20 -171 26 -215 32 -281 -16 -459 -166 -611 -198 -200 -491 -219
-729 -46 -102 74 -173 182 -371 562 -53 102 -102 191 -110 199 -11 12 -17 6
-39 -37 -58 -114 -204 -235 -326 -272 -207 -62 -400 -18 -543 124 -136 133
-186 324 -132 502 l12 41 -121 6 c-142 7 -512 -1 -509 -11 14 -41 33 -150 33
-186 0 -225 -174 -437 -402 -491 -125 -29 -270 -13 -386 42 -73 35 -197 158
-237 235 -17 32 -32 58 -35 58 -5 0 -21 -30 -196 -363 -142 -270 -209 -359
-327 -436 -99 -63 -174 -85 -297 -85 -168 -1 -267 38 -386 154 -70 68 -121
146 -153 234 -24 65 -26 83 -25 216 1 80 11 224 22 320 12 96 40 337 62 535
22 198 45 385 50 415 5 30 14 115 21 189 6 74 19 169 30 210 44 173 196 421
346 561 163 154 420 280 632 311 97 14 264 6 373 -16 137 -29 311 -113 429
-207 l54 -43 263 3 262 3 0 779 0 779 88 60 87 59 35 -21 c19 -11 63 -40 97
-64z m2009 -59 c43 -53 83 -103 87 -111 7 -12 32 -14 125 -13 65 1 133 2 153
1 l36 -1 -8 -47 c-4 -27 -8 -70 -8 -97 -1 -81 -10 -47 -12 47 -2 93 -18 114
-31 41 -27 -146 -59 -379 -55 -407 3 -27 4 -25 6 13 2 25 9 68 16 95 l14 50
-5 -50 c-2 -27 0 -57 6 -65 7 -11 10 -1 10 38 0 59 19 72 22 15 0 -21 2 -51 4
-68 5 -57 -8 -165 -20 -165 -6 0 -19 20 -29 44 -19 47 -61 82 -132 112 -49 20
-86 15 -176 -27 -86 -40 -106 -34 -145 43 -47 94 -84 137 -141 165 -48 23 -62
25 -128 20 -41 -3 -75 -2 -75 1 0 4 53 68 118 143 64 74 152 176 195 227 42
51 81 92 86 92 4 0 43 -43 87 -96z m351 -241 c-3 -10 -5 -2 -5 17 0 19 2 27 5
18 2 -10 2 -26 0 -35z m0 -155 c-2 -13 -4 -3 -4 22 0 25 2 35 4 23 2 -13 2
-33 0 -45z m-5994 -2428 c14 -11 36 -37 48 -56 21 -34 21 -37 5 -46 -122 -68
-169 -233 -101 -356 18 -33 46 -65 72 -83 24 -17 43 -38 43 -47 0 -25 -43 -85
-72 -101 -23 -12 -32 -10 -89 17 -35 16 -184 74 -331 128 l-268 99 0 83 0 83
113 53 c61 29 132 61 156 72 24 10 119 53 210 96 91 42 171 77 177 77 6 1 23
-8 37 -19z m7031 -340 c3 -188 4 -345 1 -350 -4 -6 -17 -10 -31 -10 l-24 0 0
350 0 350 23 0 24 0 7 -340z m186 -5 l0 -345 -24 0 c-13 0 -27 7 -30 16 -3 9
-6 164 -6 345 l0 329 30 0 30 0 0 -345z m291 306 l39 -39 0 -279 c0 -304 -1
-308 -58 -332 -16 -7 -53 -11 -83 -9 l-54 3 -3 348 -2 347 61 0 c58 0 64 -2
100 -39z m-7183 -872 c-68 -68 -188 -190 -267 -272 -80 -81 -148 -144 -152
-140 -24 25 -148 477 -135 491 4 3 49 -9 100 -26 106 -36 174 -40 253 -17 59
18 139 84 159 132 14 32 15 32 86 35 l73 3 3 -41 c3 -40 0 -43 -120 -165z
m6380 169 c23 -52 69 -93 120 -108 20 -5 119 -10 219 -10 100 0 184 -3 187 -8
9 -15 -104 -441 -124 -465 -4 -4 -78 69 -166 164 -87 95 -207 218 -266 274
-105 100 -108 104 -108 146 l0 44 59 3 60 3 19 -43z m-2962 -402 c57 -56 105
-91 187 -134 l58 -31 -92 -62 c-51 -34 -130 -98 -175 -141 l-83 -80 -1 288 0
287 28 -39 c16 -21 51 -61 78 -88z m-366 -167 l0 -282 -22 28 c-36 46 -204
180 -268 214 -33 18 -60 34 -60 36 0 2 30 20 68 40 78 41 162 110 230 189 26
31 48 56 50 56 1 0 2 -127 2 -281z m-821 -195 c173 -22 332 -81 476 -177 82
-55 249 -228 295 -307 66 -114 121 -254 92 -236 -9 5 -6 -776 3 -999 3 -69 7
-182 10 -252 l6 -127 -74 108 c-101 147 -179 232 -297 320 -175 132 -382 220
-615 263 -160 29 -466 24 -650 -11 -205 -39 -445 -105 -385 -106 8 0 65 7 125
15 129 17 399 19 546 4 437 -44 882 -255 1223 -578 70 -66 80 -73 91 -58 19
26 84 49 129 45 l41 -3 7 45 c3 25 7 113 7 197 1 83 5 153 10 155 11 4 14 97
10 348 l-3 195 -6 -135 c-4 -91 -7 -17 -8 232 -2 348 -1 370 18 422 18 48 120
222 138 236 4 3 31 33 60 67 62 72 150 144 240 196 221 128 460 174 791 150
l91 -6 56 -73 c119 -155 288 -268 462 -310 37 -9 113 -18 169 -21 l102 -6 32
-81 c56 -144 110 -289 145 -390 19 -55 39 -105 43 -110 17 -21 178 -419 277
-684 13 -35 33 -81 43 -103 11 -21 15 -39 11 -39 -5 0 -68 18 -140 40 -243 73
-405 100 -713 121 -231 15 -528 0 -703 -36 -364 -74 -720 -231 -1010 -446 -50
-37 -55 -43 -41 -54 9 -7 20 -26 23 -44 4 -17 8 -31 11 -31 2 0 50 25 106 54
302 162 728 287 1127 332 385 43 1065 15 1484 -62 96 -17 110 -17 103 -1 -75
168 -137 312 -168 391 -22 55 -67 161 -99 235 -67 156 -69 162 -53 168 7 3 29
-30 54 -79 23 -45 72 -137 109 -203 36 -66 95 -174 130 -240 35 -66 96 -178
137 -248 41 -71 73 -130 71 -132 -2 -1 -75 6 -163 16 -420 48 -1049 70 -1422
50 -533 -29 -997 -121 -1336 -265 -76 -33 -102 -49 -121 -77 -16 -23 -39 -40
-72 -52 -58 -20 -83 -21 -137 -5 -37 11 -109 68 -118 94 -5 15 -196 88 -354
136 -343 103 -662 150 -1151 169 -453 18 -973 -3 -1383 -56 -63 -8 -117 -13
-119 -10 -2 2 14 34 36 72 48 83 340 612 408 740 27 51 55 93 63 93 8 0 11 -7
8 -17 -10 -32 -167 -404 -253 -598 -46 -104 -82 -190 -80 -192 1 -2 97 10 212
26 347 49 571 65 934 65 279 -1 348 -4 485 -23 407 -56 753 -160 1088 -327 95
-48 107 -52 107 -35 0 11 5 32 12 47 12 25 10 29 -22 57 -62 53 -242 166 -360
226 -419 214 -798 288 -1332 261 -344 -17 -535 -51 -845 -153 -18 -6 -35 -8
-38 -6 -2 3 18 59 46 125 53 124 126 305 224 557 48 121 65 154 93 177 19 15
32 33 28 38 -3 6 2 9 11 8 10 -2 12 -1 5 1 -9 3 -12 14 -8 31 5 24 4 23 -14
-8 -21 -35 -21 -35 -15 -6 4 17 35 104 69 195 35 91 74 194 86 229 l23 62 66
0 c77 0 218 22 277 43 64 23 142 65 219 118 98 67 155 123 217 215 26 39 33
43 76 47 74 7 286 -3 411 -19z m4301 -149 l144 -145 -129 -132 c-72 -73 -140
-141 -152 -150 -21 -18 -23 -16 -172 134 l-150 151 146 144 c80 78 151 143
157 143 6 0 76 -65 156 -145z m-371 -401 l133 -137 -144 -144 c-78 -78 -149
-143 -156 -143 -12 0 -283 271 -290 290 -1 4 63 71 144 148 118 113 151 139
164 132 9 -5 76 -71 149 -146z m-6397 -307 l-163 -162 -110 114 c-60 63 -108
118 -107 122 2 4 72 78 157 164 l155 156 115 -115 116 -116 -163 -163z m7071
225 l157 -157 -115 -115 -115 -115 -160 160 -160 160 112 112 c62 62 115 113
118 113 3 0 76 -71 163 -158z m-6533 -452 c0 -11 -306 -320 -317 -320 -11 0
-303 294 -303 305 0 5 71 80 157 167 l158 158 152 -152 c84 -84 153 -155 153
-158z m6229 146 c84 -84 152 -158 150 -164 -2 -6 -71 -79 -154 -163 l-150
-152 -152 158 c-84 87 -153 163 -153 169 0 11 290 306 300 306 3 0 74 -69 159
-154z"/>
<path d="M3670 8052 c-30 -24 -28 -54 5 -147 30 -81 50 -101 93 -90 58 14 76
59 53 131 -5 16 -12 41 -15 56 -14 61 -88 89 -136 50z"/>
<path d="M6474 8048 c-24 -27 -58 -158 -49 -188 7 -22 53 -50 83 -50 39 0 61
33 83 119 21 83 21 84 2 110 -28 37 -90 41 -119 9z"/>
<path d="M3195 7907 c-99 -41 -272 -113 -385 -161 -234 -100 -269 -125 -277
-197 -4 -38 8 -72 91 -269 124 -290 124 -290 178 -318 l45 -22 59 19 c32 10
104 38 159 61 55 23 201 82 325 132 124 50 240 102 258 115 38 28 62 71 62
109 0 15 -43 136 -96 268 -150 377 -145 374 -419 263z m155 -256 c0 -5 16 -44
35 -85 19 -42 35 -81 35 -86 0 -6 -12 -15 -27 -21 -16 -5 -131 -53 -256 -105
-126 -53 -231 -93 -234 -90 -3 3 -21 42 -40 88 -19 46 -37 88 -39 93 -2 6 12
17 33 24 21 8 101 41 178 73 161 69 284 117 303 117 6 1 12 -3 12 -8z"/>
<path d="M2265 6985 c-48 -47 -37 -73 83 -189 119 -115 174 -162 203 -171 26
-9 78 25 86 54 3 13 2 34 -3 47 -5 13 -71 82 -146 154 -152 144 -174 154 -223
105z"/>
<path d="M7915 7000 c-11 -4 -80 -68 -152 -142 -104 -105 -133 -141 -133 -161
0 -40 33 -67 79 -67 37 0 48 8 175 133 148 144 158 162 114 211 -27 29 -55 38
-83 26z"/>
<path d="M1944 6399 c-28 -10 -54 -47 -54 -76 0 -51 76 -95 191 -110 67 -9
103 64 59 120 -17 22 -65 42 -165 71 -5 2 -20 0 -31 -5z"/>
<path d="M8191 6384 c-95 -31 -111 -45 -111 -99 0 -47 24 -78 62 -77 39 0 164
42 187 63 34 32 31 84 -5 117 -31 27 -41 27 -133 -4z"/>
<path d="M1824 6070 c-28 -11 -54 -48 -54 -76 0 -45 35 -70 127 -93 86 -22 87
-22 112 -3 45 33 41 112 -7 136 -15 7 -50 18 -77 24 -28 6 -57 13 -65 16 -8 2
-25 1 -36 -4z"/>
<path d="M8322 6061 c-96 -21 -124 -45 -120 -103 4 -63 33 -76 128 -60 39 7
84 19 99 27 36 18 55 62 42 96 -20 53 -52 62 -149 40z"/>
<path d="M8410 5719 c-97 -12 -106 -16 -123 -51 -19 -41 -12 -85 19 -105 20
-13 36 -13 111 -4 73 10 92 16 111 37 26 30 29 74 5 102 -24 27 -46 31 -123
21z"/>
<path d="M1702 5695 c-26 -33 -27 -46 -7 -84 18 -35 25 -38 136 -53 87 -11 90
-11 111 10 31 30 29 85 -2 117 -22 20 -38 25 -121 31 l-96 6 -21 -27z"/>
<path d="M3465 6146 c-248 -58 -406 -178 -515 -394 -87 -173 -94 -428 -16
-605 57 -131 180 -271 297 -340 100 -59 204 -88 340 -94 151 -7 251 12 378 74
77 37 108 59 170 122 157 158 228 343 218 561 -16 322 -226 585 -532 665 -86
22 -266 28 -340 11z m315 -366 l0 -159 33 -6 c17 -4 85 -5 150 -3 l117 3 0
-177 c0 -135 -3 -178 -12 -179 -7 -1 -74 -2 -148 -3 l-135 -1 -3 -162 -2 -163
-164 0 -164 0 -7 160 c-4 88 -8 161 -9 161 0 1 -68 4 -151 8 l-150 6 0 174 0
174 147 -2 c109 -2 148 1 154 10 4 7 6 82 5 166 l-3 153 171 0 171 0 0 -160z"/>
<path d="M6520 6146 c-156 -34 -269 -94 -376 -201 -130 -129 -192 -253 -215
-433 -28 -218 46 -417 221 -592 94 -94 172 -142 300 -181 98 -31 308 -34 410
-6 391 105 619 511 504 897 -57 192 -203 361 -389 450 -55 26 -122 53 -149 59
-79 19 -233 22 -306 7z m255 -194 c57 -39 88 -103 81 -166 -20 -177 -244 -225
-337 -72 -12 20 -19 49 -19 84 0 155 151 239 275 154z m-426 -360 c111 -56
135 -196 48 -286 -75 -78 -167 -82 -247 -10 -47 43 -64 90 -57 156 8 63 33
104 82 134 49 29 124 32 174 6z m808 -1 c51 -24 91 -80 99 -142 16 -115 -100
-224 -211 -199 -87 20 -147 94 -147 181 2 135 133 217 259 160z m-435 -341
c75 -21 137 -102 138 -179 0 -45 -35 -116 -69 -141 -62 -43 -163 -45 -220 -2
-60 44 -87 139 -60 209 15 40 57 82 104 104 47 22 57 22 107 9z"/>
<path d="M4710 5531 c-66 -35 -91 -121 -56 -189 32 -63 33 -63 480 -60 l405 3
30 29 c53 51 58 118 16 183 -34 51 -54 53 -462 53 -350 0 -381 -1 -413 -19z"/>
<path d="M4235 4753 c-115 -60 -165 -191 -114 -303 27 -59 44 -77 104 -108
117 -59 258 -3 311 124 43 102 -15 237 -121 285 -49 23 -139 24 -180 2z"/>
<path d="M5822 4749 c-82 -41 -143 -154 -127 -237 36 -191 259 -259 383 -117
81 92 82 204 3 296 -65 77 -172 101 -259 58z"/>
<path d="M7602 7290 c0 -14 2 -19 5 -12 2 6 2 18 0 25 -3 6 -5 1 -5 -13z"/>
<path d="M5263 3965 c0 -27 2 -38 4 -22 2 15 2 37 0 50 -2 12 -4 0 -4 -28z"/>
<path d="M5280 3990 c0 -5 5 -10 11 -10 5 0 7 5 4 10 -3 6 -8 10 -11 10 -2 0
-4 -4 -4 -10z"/>
<path d="M4965 4020 c-3 -5 -1 -10 4 -10 6 0 11 5 11 10 0 6 -2 10 -4 10 -3 0
-8 -4 -11 -10z"/>
<path d="M4940 3975 c0 -8 4 -15 10 -15 5 0 7 7 4 15 -4 8 -8 15 -10 15 -2 0
-4 -7 -4 -15z"/>
<path d="M4745 3750 c3 -5 8 -10 11 -10 2 0 4 5 4 10 0 6 -5 10 -11 10 -5 0
-7 -4 -4 -10z"/>
<path d="M4785 3710 c-3 -5 -1 -10 4 -10 6 0 11 5 11 10 0 6 -2 10 -4 10 -3 0
-8 -4 -11 -10z"/>
<path d="M3819 3413 c-13 -16 -12 -17 4 -4 16 13 21 21 13 21 -2 0 -10 -8 -17
-17z"/>
<path d="M6565 3270 c10 -11 20 -20 23 -20 3 0 -3 9 -13 20 -10 11 -20 20 -23
20 -3 0 3 -9 13 -20z"/>
<path d="M6163 3233 c9 -2 23 -2 30 0 6 3 -1 5 -18 5 -16 0 -22 -2 -12 -5z"/>
<path d="M5462 3195 c0 -16 2 -22 5 -12 2 9 2 23 0 30 -3 6 -5 -1 -5 -18z"/>
<path d="M5452 3130 c0 -19 2 -27 5 -17 2 9 2 25 0 35 -3 9 -5 1 -5 -18z"/>
<path d="M6253 3143 c9 -2 25 -2 35 0 9 3 1 5 -18 5 -19 0 -27 -2 -17 -5z"/>
<path d="M6528 3113 c6 -2 18 -2 25 0 6 3 1 5 -13 5 -14 0 -19 -2 -12 -5z"/>
<path d="M3628 3103 c7 -3 16 -2 19 1 4 3 -2 6 -13 5 -11 0 -14 -3 -6 -6z"/>
<path d="M3170 2925 c-14 -8 -20 -14 -14 -15 5 0 19 7 30 15 24 18 16 19 -16
0z"/>
<path d="M5552 2915 c-13 -7 -19 -15 -14 -19 5 -3 17 3 27 14 21 23 19 23 -13
5z"/>
<path d="M7071 2916 c2 -2 15 -9 29 -15 24 -11 24 -11 6 3 -16 13 -49 24 -35
12z"/>
<path d="M5211 2874 c0 -11 3 -14 6 -6 3 7 2 16 -1 19 -3 4 -6 -2 -5 -13z"/>
<path d="M5509 2873 c-13 -16 -12 -17 4 -4 16 13 21 21 13 21 -2 0 -10 -8 -17
-17z"/>
<path d="M4742 2873 c-6 -2 -10 -9 -6 -14 8 -14 21 -11 21 6 0 8 -1 15 -1 14
-1 0 -7 -3 -14 -6z"/>
<path d="M2995 2830 c-3 -6 1 -7 9 -4 18 7 21 14 7 14 -6 0 -13 -4 -16 -10z"/>
<path d="M2956 2805 c-11 -8 -15 -15 -9 -15 6 0 16 7 23 15 16 19 11 19 -14 0z"/>
<path d="M4801 2774 c1 -16 5 -40 9 -54 6 -17 7 -9 3 25 -6 56 -14 74 -12 29z"/>
<path d="M2896 2772 c-16 -10 -46 -32 -65 -51 -34 -31 -33 -31 26 9 77 51 100
76 39 42z"/>
<path d="M5412 2714 c-6 -33 -12 -71 -11 -85 0 -13 7 8 15 46 8 39 13 77 11
85 -1 8 -8 -13 -15 -46z"/>
<path d="M5385 2560 c-4 -23 -5 -43 -2 -46 2 -3 7 14 11 37 4 23 5 44 2 46 -2
2 -7 -14 -11 -37z"/>
<path d="M5361 2434 c0 -11 3 -14 6 -6 3 7 2 16 -1 19 -3 4 -6 -2 -5 -13z"/>
<path d="M5336 2355 c4 -8 8 -15 10 -15 2 0 4 7 4 15 0 8 -4 15 -10 15 -5 0
-7 -7 -4 -15z"/>
<path d="M4891 2345 c-1 -34 25 -120 33 -107 4 6 2 20 -4 31 -5 11 -14 37 -19
58 -5 21 -9 29 -10 18z"/>
<path d="M5327 2308 c-3 -13 -9 -44 -12 -70 -5 -34 -11 -45 -21 -41 -8 3 -14
0 -14 -6 0 -6 5 -11 11 -11 6 0 9 -7 5 -15 -3 -8 -2 -15 3 -15 9 0 44 170 37
177 -2 2 -6 -6 -9 -19z"/>
<path d="M5003 2235 c0 -22 2 -30 4 -17 2 12 2 30 0 40 -3 9 -5 -1 -4 -23z"/>
<path d="M6265 2189 c-147 -17 -369 -86 -515 -159 -205 -103 -443 -333 -540
-520 -17 -34 -17 -36 1 -59 l19 -23 53 46 c412 367 791 549 1257 606 183 22
509 8 674 -30 66 -15 68 -7 4 14 -344 114 -678 158 -953 125z"/>
<path d="M4928 2163 c5 -21 7 -23 10 -9 2 10 0 22 -6 28 -6 6 -7 0 -4 -19z"/>
<path d="M5287 2126 c-4 -10 -7 -30 -6 -44 1 -25 1 -25 10 6 11 37 7 67 -4 38z"/>
<path d="M4940 2110 c0 -8 5 -22 10 -30 9 -13 10 -13 10 0 0 8 -5 22 -10 30
-9 13 -10 13 -10 0z"/>
<path d="M4960 2034 c0 -6 5 -25 11 -43 6 -17 22 -82 35 -144 20 -91 23 -100
18 -47 -4 36 -6 75 -5 88 0 12 -3 22 -8 22 -5 0 -15 24 -21 53 -12 52 -29 92
-30 71z"/>
<path d="M5254 2027 c3 -10 6 -24 7 -30 0 -7 5 -1 10 12 5 13 7 26 4 29 -3 3
-5 -1 -5 -9 0 -12 -2 -11 -11 1 -9 12 -10 12 -5 -3z"/>
<path d="M5245 1940 c-4 -23 -5 -43 -2 -46 2 -3 7 14 11 37 4 23 5 44 2 46 -2
2 -7 -14 -11 -37z"/>
<path d="M5211 1790 l1 -45 8 35 c5 20 5 39 -1 45 -5 5 -9 -8 -8 -35z"/>
</g>
</svg>
